<?xml version="1.0" encoding="utf-8"?>
<!-- Generator: Adobe Illustrator 16.0.0, SVG Export Plug-In . SVG Version: 6.00 Build 0)  -->
<!DOCTYPE svg PUBLIC "-//W3C//DTD SVG 1.1//EN" "http://www.w3.org/Graphics/SVG/1.1/DTD/svg11.dtd">
<!--svg version="1.1" id="Layer_1" xmlns="http://www.w3.org/2000/svg" xmlns:xlink="http://www.w3.org/1999/xlink" x="0px" y="0px"
	 width="142.8px" height="46.8px" viewBox="86.5 1054.5 1428 468" enable-background="new 86.5 1054.5 1428 468" xml:space="preserve"
	-->
<svg version="1.1" id="Layer_1" xmlns="http://www.w3.org/2000/svg" xmlns:xlink="http://www.w3.org/1999/xlink" x="0px" y="0px"
	 width="250px" height="60px" viewBox="86.5 1054.5 1428 468" enable-background="new 86.5 1054.5 1428 468" xml:space="preserve"
	>
<g>
	<path d="M515.135,1122.52c-11.193-27.081-30.337-40.803-55.614-40.803c-27.081,0-46.227,13.722-55.979,40.803h-1.09v-28.533
		c-0.363-4.693-3.242-7.225-7.95-7.573h-39.714c-5.784,0-8.664,2.88-8.664,7.938v219.928c0.729,4.332,2.895,6.513,8.301,6.861
		l42.619-0.353c5.408,0,7.938-2.179,8.313-7.6v-115.911c-0.363-19.507,0.35-32.864,2.879-39.727
		c4.332-14.437,12.646-20.946,26.368-20.946c13.358,0,22.035,6.498,24.915,20.946c1.076,5.059,1.803,18.417,1.803,39.727v115.911
		c-0.727,4.708,2.166,7.6,7.587,7.95l42.971-0.352c5.771,0,7.938-2.18,7.938-7.601v-115.911c0-22.035,1.09-36.121,4.332-42.255
		c1.803-5.785,5.408-10.117,10.467-13.358c4.332-3.257,9.392-5.06,15.161-4.694c14.086,0,22.399,6.146,24.565,19.144
		c1.45,3.257,1.45,16.979,1.45,41.181v115.91c0,4.707,2.895,7.602,7.938,7.949l42.619-0.35c5.771,0,8.301-2.18,8.301-7.603v-174.793
		c-1.077-13.723-5.059-24.563-10.479-32.502c-11.906-16.252-28.17-24.2-49.845-24.2c-13.356,0-24.563,3.24-35.029,10.479
		C528.492,1098.682,519.828,1109.162,515.135,1122.52z M918.519,1086.052c-5.785,0-7.951,2.166-7.951,7.938v31.063
		c0,5.406,2.895,8.301,8.314,8.301h73.668l-84.861,120.604c-3.242,5.424-5.059,12.282-5.059,22.036v31.412
		c0,2.529,0.727,5.071,3.241,6.161c2.166,2.152,4.332,2.503,6.497,1.063c23.112-12.257,48.756-18.417,76.198-18.041
		c26.73,0.713,50.558,6.135,72.954,18.041l7.225-1.063c2.166-1.09,3.242-3.269,3.242-6.161v-33.563
		c-1.076-5.421-3.242-9.779-7.574-12.282c-21.31-11.933-48.391-17.704-80.527-16.614l72.955-104.018
		c7.225-10.104,10.83-16.614,10.83-20.583v-26.367c0-5.771-2.895-7.938-7.951-7.938H918.519V1086.052L918.519,1086.052z
		 M1483.342,1107.722c-10.845-17.704-27.434-26.005-50.206-26.005c-14.438,0-26.344,3.618-35.745,11.19
		c-8.664,7.227-16.238,17.691-22.398,33.229h-0.713v-33.591c-1.008-3.432-4.036-5.874-7.601-6.137H1326.6
		c-5.07,0-7.95,2.166-7.95,7.226v219.553c-0.35,4.708,2.529,7.601,7.603,7.95l42.604-0.352c5.422,0,7.925-2.18,8.664-7.601v-118.077
		c0-17.704,2.151-31.426,6.86-41.529c5.046-11.918,12.994-17.341,24.929-17.341c12.619-0.726,20.22,6.498,23.813,20.233
		c1.439,6.135,2.528,18.78,2.894,38.637v119.519c0,4.332,2.919,6.159,7.25,6.511l42.956-0.352c4.708,0,7.601-1.827,8.313-6.159
		V1176.33C1494.532,1142.377,1490.563,1119.63,1483.342,1107.722z"/>
	<path fill="#FFFFFF" d="M306.398,1347.87c-2.166,3.243-1.44,6.513,2.528,9.755c48.273,43.814,104.063,78.563,164.678,102.563
		c62.839,24.552,128.569,36.834,198.269,36.834c52.927-0.687,105.521-8.464,156.377-23.125
		c54.89-16.588,102.201-39.363,140.84-68.247c6.146-4.682,8.313-9.402,4.332-14.799c-3.242-5.797-9.026-6.51-15.89-3.618
		c-89.557,37.924-182.018,56.341-276.995,56.341c-65.366,0-129.646-8.664-192.848-25.642
		c-61.386-16.614-118.453-39.713-170.813-70.426C312.532,1344.63,308.914,1344.978,306.398,1347.87L306.398,1347.87z"/>
	<path fill="#FFFFFF" d="M1036.972,1341.385c-2.529-2.919-7.938-5.422-17.691-7.603l-32.863-2.893
		c-32.504,0.351-58.87,7.951-79.816,22.036c-3.242,2.892-5.058,5.771-3.969,8.313c0,2.153,2.166,3.242,6.135,2.504
		c56.341-6.136,87.391-5.046,94.265,3.618c6.861,9.016-0.727,39.714-21.31,91.724c-2.166,3.618-1.076,6.135,1.09,7.225
		c2.518,0.739,5.408,0.351,8.664-2.529c19.506-16.237,33.592-39.714,42.618-70.426c3.242-12.257,5.059-23.463,5.784-33.592
		C1039.864,1350.051,1039.151,1343.888,1036.972,1341.385z"/>
	<path d="M204.909,1176.695l-8.663,1.076c-16.614,2.166-29.984,5.785-39.727,9.754c-14.448,6.498-25.278,15.161-33.229,26.73
		c-8.664,12.27-12.996,26.354-12.996,42.979c0,21.312,6.147,37.924,18.78,50.183c11.193,11.556,26.73,16.612,45.874,16.612
		c11.557,0,21.31-1.438,29.974-3.98c2.528-0.714,5.06-1.439,7.226-2.528c10.116-4.332,20.944-12.646,32.865-24.552l10.479,14.085
		l14.449,14.824c3.969,1.803,7.224,1.438,10.116-1.092l32.863-28.546c3.605-2.503,3.605-6.835,0-11.167l-10.83-16.613
		c-3.604-7.226-5.058-14.447-5.058-22.748v-66.81c0-20.231-1.09-33.954-1.803-40.089c-2.166-13.723-8.314-25.277-17.328-33.592
		c-14.448-14.438-36.121-21.312-64.291-21.312h-8.664c-19.856,1.076-36.834,5.784-50.919,14.085
		c-19.87,11.193-31.789,28.533-36.121,51.646c-1.439,4.693,0.727,7.574,6.135,9.025l41.166,3.971c4.332,0,6.861-2.529,7.588-7.938
		c2.165-7.95,6.136-14.448,12.995-18.78c5.061-3.979,11.559-6.146,19.146-6.498c0.727-0.361,1.438-0.361,2.166-0.361
		c11.19,0,19.507,3.969,24.563,11.557c2.529,3.242,4.332,8.313,4.695,15.161l0.363,21.31L204.909,1176.695L204.909,1176.695z
		 M204.909,1280.686c-1.803,0.376-3.969,0.376-5.784,0.376c-8.301,0-14.799-2.918-19.144-8.689
		c-4.695-5.045-7.226-12.617-7.226-22.386c0-19.854,10.829-32.864,32.141-38.637c8.664-2.529,19.507-3.604,31.774-3.604v8.662
		c-0.361,11.559-0.727,19.509-0.727,23.826c-1.076,7.938-3.969,14.813-7.587,21.322
		C222.25,1272.761,214.663,1278.885,204.909,1280.686L204.909,1280.686z M766.786,1176.695l-8.664,1.076
		c-16.612,2.166-29.973,5.785-39.727,9.754c-14.448,6.498-25.278,15.161-33.229,26.73c-8.661,12.27-13.009,26.354-13.009,42.979
		c0,21.312,6.148,37.924,18.78,50.183c11.193,11.556,26.731,16.612,45.861,16.612c11.556,0,21.31-1.438,29.974-3.98
		c2.528-0.714,5.058-1.439,7.224-2.528c10.104-4.332,20.946-12.646,32.865-24.552l10.479,14.085l14.448,14.824
		c3.969,1.803,7.225,1.438,10.104-1.092l32.865-28.546c3.604-2.503,3.604-6.835,0-11.167l-10.829-16.613
		c-3.605-7.226-5.061-14.447-5.061-22.748v-66.81c0-20.231-1.074-33.954-1.803-40.089c-2.166-13.723-8.313-25.277-17.341-33.592
		c-14.435-14.438-36.107-21.312-64.277-21.312h-8.664c-19.854,1.076-36.834,5.784-50.919,14.085
		c-19.855,11.193-31.774,28.533-36.106,51.646c-1.439,4.693,0.727,7.574,6.146,9.025l41.166,3.971c4.332,0,6.861-2.529,7.588-7.938
		c2.166-7.95,6.147-14.448,12.995-18.78c5.061-3.979,11.559-6.146,19.146-6.498c0.727-0.361,1.438-0.361,2.166-0.361
		c11.191,0,19.493,3.969,24.552,11.557c2.529,3.242,4.332,8.313,4.695,15.161l0.361,21.31L766.786,1176.695L766.786,1176.695z
		 M766.786,1280.686c-1.803,0.376-3.969,0.376-5.771,0.376c-8.313,0-14.813-2.918-19.146-8.689
		c-4.693-5.045-7.225-12.617-7.225-22.386c0-19.854,10.83-32.864,32.14-38.637c8.663-2.529,19.509-3.604,31.789-3.604v8.662
		c-0.361,11.559-0.727,19.509-0.727,23.826c-1.09,7.938-3.981,14.813-7.587,21.322
		C784.129,1272.761,776.539,1278.885,766.786,1280.686L766.786,1280.686z M1189.016,1081.705c-29.974,0-54.175,11.919-71.502,35.396
		c-16.614,21.659-25.278,50.556-25.278,86.313c0,35.396,8.664,63.93,25.278,86.679c16.978,24.188,41.166,36.12,71.502,36.12h0.727
		c28.896-0.375,52.372-12.281,70.438-35.03c17.328-22.749,26.342-50.569,26.342-84.874c0-36.474-8.664-65.368-24.902-88.117
		c-17.701-24.201-41.903-36.471-71.878-36.471L1189.016,1081.705L1189.016,1081.705z M1189.73,1279.973h-0.727
		c-14.801,0-24.564-10.104-29.61-31.063c-2.166-11.556-3.605-28.531-3.605-52.371c0-19.145,1.439-34.317,4.695-44.783
		c5.058-16.614,14.812-25.278,28.896-25.278h0.363c13.358,0.363,22.749,7.95,27.457,22.035c4.332,13.723,6.135,32.865,6.135,57.78
		c0,20.583-1.438,36.835-4.693,47.301C1213.219,1271.309,1203.467,1279.973,1189.73,1279.973z"/>
</g>
</svg>
