<?xml version="1.0" encoding="utf-8"?>
<!-- Generator: Adobe Illustrator 16.0.0, SVG Export Plug-In . SVG Version: 6.00 Build 0)  -->
<!DOCTYPE svg PUBLIC "-//W3C//DTD SVG 1.1//EN" "http://www.w3.org/Graphics/SVG/1.1/DTD/svg11.dtd">
<svg version="1.1" id="Layer_1" xmlns="http://www.w3.org/2000/svg" xmlns:xlink="http://www.w3.org/1999/xlink" x="0px" y="0px"
	 width="812px" height="200.99px" viewBox="6.115 0 812 200.99" enable-background="new 6.115 0 812 200.99" xml:space="preserve">
<g>
	<g>
		<path fill="none" d="M346.462,62.444c0.005,3.327,0.013,6.653,0.019,9.979c-0.024,2.992-0.049,5.985-0.073,8.979
			c0.094,6.3,0.188,12.6,0.282,18.899c0.314,4.692,0.633,9.389,0.949,14.081c1.262,9.956,2.521,19.914,3.783,29.87
			c0.277,1.198,0.556,2.396,0.831,3.598c0.266-0.076,0.527-0.151,0.792-0.229c0.377-4.72,0.755-9.438,1.132-14.162
			c0,5.804,0,11.604,0,17.405c0.631,0.002,1.259,0.005,1.888,0.007c0.296-3.375,0.402-6.777,0.93-10.119
			c1.016-6.448,2.267-12.861,3.42-19.292c1.982-4,3.965-8,5.946-12c1.309-4.364,2.616-8.729,3.925-13.095
			c0.361-2.29,0.724-4.578,1.085-6.867c0.673-3.354,1.346-6.71,2.021-10.063c1.279-3.72,2.792-7.377,3.762-11.175
			c0.661-2.588,0.229-5.149-3.525-4.838c-3.396,0.285-6.788,0.718-10.189,0.885c-0.4,0.02-0.864-1.224-1.301-1.878
			c1.427-3.659,2.852-7.318,4.274-10.979c5.131-0.863,7.464-4.521,8.988-8.991c0.917-4.035,1.834-8.066,2.751-12.104
			c0-2.996,0-5.99-0.001-8.986c1.083-1.653,2.165-3.307,3.247-4.959c3.442-0.931,6.888-1.862,10.318-2.79
			c-4.584-5.17-10.956-6.239-18.357-3.061c-2.713,1.26-5.427,2.52-8.142,3.776c-1.654,0.989-3.313,1.979-4.968,2.969
			c-2.336,3.339-4.671,6.679-7.006,10.017c-3.219,5.235-4.911,10.821-3.934,17.023c-0.947,4.339-1.896,8.677-2.845,13.015
			C346.464,59.054,346.463,60.75,346.462,62.444z M543.41,90.124c-0.586,0.099-1.173,0.193-1.761,0.291
			c-0.434,2.659-0.986,5.308-1.284,7.98c-2.886,25.958-5.854,51.907-8.498,77.892c-0.665,6.532-1.944,11.812-9.836,12.163
			c-0.09,0.004-0.159,0.433-0.29,0.807c9.037,0,17.975,0,26.906,0c-0.525-1.031-1.095-1.401-1.714-1.527
			c-7.302-1.488-7.548-1.494-7.077-9.063c0.722-11.619,1.786-23.218,2.77-34.818c0.71-8.397,1.52-16.787,2.283-25.183
			c12.017,23.897,23.01,48.021,35.874,71.188c0.538-0.016,1.076-0.026,1.614-0.039c11.43-24.168,22.857-48.336,34.285-72.504
			c0.334,0.062,0.668,0.123,1.002,0.187c2.095,23.673,4.19,47.345,6.352,71.756c7.79,0,16.94,0,26.093,0
			c-0.831-0.854-1.728-1.238-2.654-1.36c-10.107-1.325-12.157-3.343-13.339-13.813c-2.966-26.281-5.848-52.572-8.802-78.854
			c-0.186-1.623-0.733-3.205-1.113-4.807c-0.502-0.063-1.005-0.124-1.507-0.186c-12.854,27.385-25.702,54.771-38.863,82.814
			C570.156,144.969,556.783,117.546,543.41,90.124z M59.051,89.205c-1.46,3.178-2.542,5.167-3.313,7.271
			c-9.517,26.011-19.036,52.02-28.439,78.067c-2.616,7.253-5.804,13.593-14.935,13.57c-0.319,0-0.642,0.519-1.504,1.262
			c10.23,0,19.813,0,30.622,0c-9.569-3.924-9.833-4.451-6.831-13.559c2.184-6.621,4.632-13.157,6.696-19.813
			c0.922-2.973,2.3-4.303,5.591-4.188c6.984,0.238,13.991,0.225,20.979,0.006c3.237-0.104,4.642,1.132,5.691,4.128
			c3.021,8.605,6.543,17.038,9.583,25.638c0.814,2.313,0.617,4.983,0.908,7.729c7.864,0,16.443,0,25.023,0
			c-10.797-0.979-14.04-9.243-17.455-17.325c-0.192-0.459-0.324-0.943-0.505-1.409c-9.565-24.751-19.125-49.507-28.727-74.247
			C61.633,94.26,60.533,92.301,59.051,89.205z M404.702,189.388c-9.231-3.117-9.579-3.521-9.875-13.521
			c-0.37-12.479-0.702-24.957-0.995-37.438c-0.096-4.047-0.016-8.097-0.016-13.324c20.959,22.853,40.796,45.258,63.497,66.708
			c0.247-3.232,0.471-4.864,0.481-6.497c0.131-21.488,0.241-42.978,0.338-64.463c0.037-8.421,0.011-8.421,8.256-11.536
			c-9.021,0-16.915,0-24.813,0c11.513,3.346,9.462,3.175,9.848,14.839c0.502,15.305,0.717,30.619,1.021,45.931
			c0.023,1.193-0.217,2.396-0.385,4.096c-21.052-22.716-41.635-44.924-62.216-67.129c-0.514,0.227-1.024,0.45-1.537,0.678
			c0,1.739,0.004,3.479-0.001,5.22c-0.056,21.161-0.11,42.322-0.167,63.483c-0.025,9.349-0.062,9.396-9.552,12.953
			C388.168,189.388,396.436,189.388,404.702,189.388z M164.91,109.31c8.816,2.846,8.896,2.922,8.912,12.104
			c0.021,10.66,0.173,21.322-0.064,31.979c-0.119,5.459-0.474,11.005-1.591,16.329c-2.14,10.196-10,16.625-19.978,17.139
			c-11.351,0.584-19.483-4.709-22.874-15.312c-1.103-3.438-1.82-7.146-1.896-10.746c-0.267-13.317-0.229-26.644-0.199-39.967
			c0.006-2.459-0.188-5.354,0.991-7.256c1.159-1.869,3.943-2.729,6.39-4.267c-8.898,0-17.484,0-27.283,0
			c10.122,3.666,10.147,3.666,10.18,14.134c0.032,11.492-0.232,22.991,0.072,34.475c0.328,12.261,3.008,23.687,15.227,29.865
			c22.507,11.385,46.146-1.918,47.551-26.972c0.708-12.619,0.226-25.301,0.564-37.945c0.146-5.472-1.517-12.335,7.287-13.563
			C180.438,109.31,172.674,109.31,164.91,109.31z M810.815,110.476c-5.134-0.802-10.527-1.907-15.978-2.409
			c-5.454-0.501-10.987-0.807-16.443-0.487c-21.485,1.257-36.166,14.904-38.936,35.826c-2.638,19.906,8.133,38.246,26.649,44.695
			c10.56,3.675,21.512,3.952,32.562,2.481c10.256-1.361,10.896-1.833,12.424-11.929c0.397-2.651,0.438-5.355,0.644-8.036
			c-4.983,10.353-7.145,12.871-13.653,14.552c-15.141,3.91-31.762-1.688-40.953-14.217c-9.717-13.233-10.573-27.891-4.575-42.63
			c5.846-14.363,23.563-20.184,42.162-15.109c8.369,2.284,14.116,6.533,14.173,16.033c0.003,0.493,0.547,0.984,0.839,1.479
			c0.363-0.036,0.726-0.073,1.088-0.109C810.815,124.084,810.815,117.555,810.815,110.476z M732.208,189.396
			c-7.568-0.797-10.824-6.101-13.445-12.118c-0.529-1.217-1.02-2.453-1.496-3.69c-7.966-20.559-15.92-41.122-23.904-61.674
			c-0.623-1.602-1.451-3.125-2.711-5.811c-1.162,2.638-1.877,4.063-2.431,5.551c-2.663,7.148-5.287,14.312-7.915,21.474
			c-5.597,15.254-11.231,30.493-16.752,45.774c-1.897,5.25-4.706,9.158-10.927,9.177c-0.443,0.001-0.889,0.47-2.215,1.22
			c8.887,0,16.635,0,24.381,0c-6.181-2.388-6.688-3.13-4.794-9.271c1.959-6.341,4.04-12.654,6.412-18.846
			c0.478-1.24,2.473-2.611,3.824-2.681c5.979-0.29,11.992-0.354,17.96,0.029c1.567,0.101,3.752,1.781,4.388,3.274
			c2.916,6.857,5.479,13.877,7.947,20.915c0.687,1.948,0.604,4.17,0.926,6.673C717.856,189.396,725.032,189.396,732.208,189.396z
			 M300.404,113.901c5.09,0,9.594-0.242,14.06,0.061c5.875,0.396,12.521-0.061,14.1,8.396c0-4.534,0-9.066,0-13.981
			c-21.37,0-42.706,0-64.889,0c-0.771,3.679-1.702,8.125-2.693,12.85c3.246-2.617,5.606-6.054,8.453-6.516
			c6.96-1.131,14.144-0.889,21.045-1.188c0.343,0.783,0.585,1.081,0.585,1.379c0.028,20.813,0.187,41.632-0.055,62.443
			c-0.056,4.905,0.593,11.029-7.021,12.066c8.778,0,17.557,0,26.334,0c-0.782-0.995-1.658-1.462-2.531-1.458
			c-4.826,0.021-6.892-2.476-6.949-7.123c-0.043-3.49-0.405-6.977-0.415-10.466C300.381,151.571,300.404,132.779,300.404,113.901z
			 M207.104,171.444c-3.17,17.807-3.829,18.33,14.216,19.909c1.147,0.101,2.33-0.043,3.486-0.164
			c14.74-1.541,23.165-11.735,21.522-26.182c-0.867-7.632-5.644-12.939-11.103-17.716c-5.128-4.481-10.628-8.566-15.521-13.29
			c-4.979-4.806-5.957-11.36-3.234-16.398c2.639-4.89,8.837-7.299,15.685-5.958c5.449,1.063,9.715,3.473,10.323,9.757
			c0.063,0.655,0.653,1.261,1.002,1.888c0.287-0.07,0.575-0.144,0.86-0.216c0-4.507,0-9.015,0-14.423
			c-5.866-0.394-11.828-1.469-17.683-1.043c-16.095,1.169-24.12,16.739-15.623,30.5c2.896,4.688,7.403,8.438,11.396,12.393
			c4.005,3.97,8.631,7.354,12.359,11.544c4.777,5.371,5.25,12.609,2.007,18.074c-3.178,5.354-9.467,7.896-16.451,6.652
			c-7.99-1.421-11.149-4.54-12.686-12.517C207.486,173.316,207.291,172.381,207.104,171.444z M356.074,187.136
			c0.777,0.058,1.557,0.11,2.336,0.169c0.11-1.843,0.199-3.687,0.335-5.524c0.78-10.588,0.397-21.438,2.659-31.7
			c2.806-12.726,8.354-24.819,11.708-37.458c3.736-14.066,6.411-28.423,9.344-42.694c0.38-1.852-0.455-3.95-0.728-5.938
			c-1.208,1.917-1.139,3.746-1.469,5.498c-1.241,6.533-2.521,13.061-3.964,19.55c-1.481,6.674-2.368,13.631-4.934,19.883
			c-5.972,14.567-11.794,29.173-13.534,44.894C356.609,164.852,356.616,176.024,356.074,187.136z M370.598,58.203
			c5.689,0.142,7.085-0.868,9.742-4.645c4.207-5.979,4.313-12.817,4.313-19.604c0.001-6.108,1.591-10.75,8.613-12.021
			c-6.163-3.368-10.864-0.35-10.837,6.631C382.474,39.655,381.277,50.244,370.598,58.203z"/>
		<path fill="#FFFFFF" d="M543.41,90.124c13.373,27.422,26.745,54.847,40.438,82.921c13.162-28.046,26.013-55.432,38.863-82.814
			c0.502,0.062,1.005,0.123,1.507,0.186c0.38,1.604,0.931,3.184,1.11,4.807c2.957,26.281,5.836,52.572,8.805,78.854
			c1.183,10.472,3.229,12.487,13.339,13.813c0.929,0.122,1.823,0.509,2.651,1.36c-9.147,0-18.3,0-26.09,0
			c-2.161-24.412-4.256-48.083-6.352-71.756c-0.334-0.063-0.668-0.125-1.002-0.188c-11.428,24.169-22.856,48.337-34.285,72.505
			c-0.538,0.013-1.076,0.023-1.614,0.039c-12.867-23.165-23.856-47.289-35.874-71.188c-0.766,8.395-1.576,16.783-2.286,25.182
			c-0.979,11.604-2.045,23.2-2.767,34.819c-0.471,7.568-0.225,7.574,7.077,9.063c0.619,0.126,1.188,0.496,1.714,1.527
			c-8.936,0-17.869,0-26.906,0c0.13-0.375,0.2-0.803,0.29-0.807c7.889-0.354,9.171-5.63,9.836-12.163
			c2.646-25.982,5.611-51.934,8.498-77.892c0.298-2.676,0.853-5.322,1.284-7.98C542.238,90.317,542.824,90.22,543.41,90.124z"/>
		<path fill="#FFFFFF" d="M59.051,89.205c1.482,3.096,2.582,5.057,3.389,7.129c9.603,24.739,19.159,49.495,28.727,74.247
			c0.182,0.466,0.313,0.95,0.505,1.409c3.415,8.082,6.658,16.348,17.455,17.325c-8.58,0-17.159,0-25.023,0
			c-0.292-2.745-0.094-5.416-0.908-7.729c-3.04-8.6-6.563-17.03-9.583-25.638c-1.052-2.997-2.453-4.23-5.691-4.128
			c-6.986,0.219-13.993,0.23-20.979-0.006c-3.291-0.112-4.669,1.218-5.591,4.188c-2.064,6.655-4.515,13.191-6.696,19.813
			c-3.002,9.104-2.738,9.635,6.831,13.559c-10.812,0-20.392,0-30.622,0c0.862-0.744,1.185-1.262,1.505-1.262
			c9.13,0.021,12.315-6.317,14.934-13.57c9.403-26.05,18.925-52.06,28.44-78.067C56.508,94.371,57.591,92.383,59.051,89.205z
			 M70.103,146.613c-4.434-12.563-8.604-24.383-13.219-37.463c-4.296,13.261-8.17,25.218-12.138,37.463
			C53.495,146.613,61.394,146.613,70.103,146.613z"/>
		<path fill="#FFFFFF" d="M404.702,189.388c-8.268,0-16.534,0-26.11,0c9.49-3.56,9.523-3.604,9.552-12.953
			c0.059-21.162,0.111-42.323,0.167-63.483c0.005-1.74,0.001-3.479,0.001-5.22c0.512-0.228,1.022-0.452,1.537-0.678
			c20.582,22.207,41.164,44.415,62.216,67.13c0.168-1.702,0.408-2.901,0.385-4.097c-0.306-15.312-0.521-30.626-1.021-45.931
			c-0.384-11.664,1.665-11.493-9.848-14.839c7.896,0,15.79,0,24.813,0c-8.245,3.115-8.219,3.115-8.256,11.536
			c-0.098,21.485-0.207,42.975-0.338,64.463c-0.014,1.633-0.234,3.265-0.481,6.497c-22.701-21.45-42.537-43.855-63.497-66.708
			c0,5.229-0.079,9.276,0.016,13.325c0.293,12.479,0.625,24.958,0.995,37.437C395.123,185.868,395.47,186.271,404.702,189.388z"/>
		<path fill="#FFFFFF" d="M164.91,109.31c7.764,0,15.526,0,23.291,0c-8.805,1.228-7.142,8.091-7.288,13.563
			c-0.342,12.646,0.143,25.327-0.564,37.945c-1.405,25.054-25.042,38.354-47.551,26.972c-12.218-6.181-14.896-17.604-15.227-29.865
			c-0.307-11.481-0.04-22.98-0.072-34.475c-0.028-10.468-0.058-10.468-10.18-14.134c9.799,0,18.384,0,27.283,0
			c-2.443,1.537-5.229,2.396-6.39,4.267c-1.179,1.902-0.985,4.796-0.991,7.256c-0.03,13.323-0.064,26.647,0.199,39.967
			c0.072,3.602,0.792,7.308,1.896,10.748c3.391,10.6,11.523,15.894,22.874,15.31c9.978-0.514,17.838-6.94,19.978-17.139
			c1.117-5.324,1.472-10.87,1.593-16.329c0.235-10.655,0.086-21.318,0.063-31.979C173.807,112.231,173.729,112.155,164.91,109.31z"
			/>
		<path fill="#FFFFFF" d="M810.815,110.476c0,7.079,0,13.606,0,20.138c-0.362,0.036-0.725,0.073-1.088,0.108
			c-0.292-0.49-0.836-0.981-0.839-1.478c-0.055-9.5-5.802-13.749-14.173-16.033c-18.602-5.073-36.316,0.746-42.162,15.109
			c-5.999,14.739-5.142,29.395,4.575,42.63c9.191,12.53,25.813,18.127,40.955,14.217c6.509-1.682,8.668-4.202,13.651-14.552
			c-0.205,2.681-0.243,5.385-0.644,8.036c-1.525,10.096-2.168,10.563-12.424,11.929c-11.049,1.469-22.002,1.191-32.562-2.482
			c-18.519-6.448-29.287-24.788-26.649-44.694c2.77-20.922,17.447-34.569,38.936-35.826c5.457-0.319,10.99-0.015,16.443,0.487
			S805.682,109.676,810.815,110.476z"/>
		<path fill="#FFFFFF" d="M732.208,189.396c-7.176,0-14.353,0-20.753,0c-0.32-2.502-0.24-4.725-0.926-6.674
			c-2.469-7.037-5.032-14.057-7.947-20.914c-0.636-1.493-2.818-3.177-4.388-3.274c-5.968-0.383-11.979-0.319-17.96-0.029
			c-1.354,0.066-3.349,1.438-3.824,2.681c-2.373,6.189-4.454,12.505-6.412,18.846c-1.896,6.141-1.387,6.883,4.794,9.271
			c-7.746,0-15.494,0-24.381,0c1.326-0.75,1.771-1.219,2.213-1.22c6.223-0.019,9.028-3.927,10.929-9.177
			c5.521-15.281,11.155-30.521,16.752-45.774c2.628-7.162,5.252-14.323,7.915-21.474c0.554-1.487,1.269-2.913,2.431-5.551
			c1.26,2.685,2.088,4.208,2.711,5.811c7.984,20.552,15.938,41.115,23.904,61.674c0.479,1.237,0.967,2.477,1.496,3.69
			C721.384,183.298,724.639,188.6,732.208,189.396z M699.821,153.992c-3.592-10.188-7.039-19.961-10.938-31.021
			c-3.628,11.199-6.776,20.92-10.05,31.021C686.01,153.992,692.554,153.992,699.821,153.992z"/>
		<path fill="#FFFFFF" d="M300.404,113.901c0,18.878-0.022,37.67,0.021,56.46c0.01,3.489,0.372,6.976,0.415,10.466
			c0.06,4.647,2.124,7.146,6.949,7.123c0.874-0.004,1.749,0.464,2.531,1.458c-8.777,0-17.556,0-26.334,0
			c7.614-1.038,6.968-7.161,7.023-12.067c0.236-20.813,0.083-41.631,0.053-62.442c0-0.298-0.243-0.598-0.585-1.379
			c-6.901,0.302-14.085,0.06-21.045,1.188c-2.846,0.462-5.207,3.896-8.453,6.516c0.991-4.725,1.924-9.173,2.693-12.85
			c22.183,0,43.519,0,64.889,0c0,4.915,0,9.447,0,13.981c-1.577-8.453-8.226-7.996-14.1-8.396
			C309.997,113.659,305.494,113.901,300.404,113.901z"/>
		<path fill="#FFFFFF" d="M207.104,171.444c0.188,0.937,0.383,1.872,0.563,2.81c1.535,7.978,4.693,11.095,12.686,12.517
			c6.983,1.243,13.273-1.3,16.453-6.652c3.241-5.464,2.771-12.703-2.009-18.074c-3.729-4.19-8.354-7.575-12.359-11.544
			c-3.993-3.954-8.5-7.701-11.396-12.393c-8.498-13.761-0.473-29.331,15.623-30.5c5.854-0.427,11.813,0.65,17.685,1.043
			c0,5.408,0,9.916,0,14.423c-0.287,0.072-0.575,0.145-0.862,0.216c-0.348-0.627-0.938-1.231-1.002-1.888
			c-0.608-6.284-4.875-8.691-10.322-9.757c-6.848-1.34-13.045,1.068-15.686,5.958c-2.722,5.038-1.744,11.595,3.234,16.398
			c4.894,4.723,10.394,8.808,15.521,13.29c5.459,4.774,10.233,10.084,11.103,17.716c1.643,14.444-6.781,24.641-21.522,26.182
			c-1.156,0.12-2.337,0.265-3.485,0.164C203.274,189.774,203.934,189.252,207.104,171.444z"/>
		<path fill="#636667" d="M356.074,187.136c0.542-11.111,0.534-22.284,1.757-33.321c1.74-15.721,7.563-30.324,13.535-44.894
			c2.563-6.252,3.449-13.209,4.933-19.883c1.441-6.487,2.723-13.018,3.964-19.55c0.333-1.752,0.262-3.582,1.469-5.498
			c0.271,1.985,1.105,4.085,0.728,5.938c-2.934,14.271-5.605,28.627-9.343,42.694c-3.354,12.638-8.904,24.731-11.708,37.458
			c-2.263,10.265-1.88,21.111-2.66,31.7c-0.136,1.84-0.225,3.684-0.335,5.525C357.631,187.248,356.854,187.192,356.074,187.136z"/>
		<path fill="#F68A2D" d="M362.133,62.429c0.437,0.654,0.896,1.896,1.301,1.877c3.401-0.167,6.792-0.599,10.189-0.884
			c3.757-0.313,4.188,2.25,3.525,4.838c-0.97,3.798-2.48,7.455-3.762,11.175c-0.707-0.365-1.427-0.713-2.121-1.103
			c-5.321-2.962-10.639-5.933-15.955-8.898c-0.333-0.349-0.667-0.69-1-1.035c0.337-1.949,0.673-3.898,1.01-5.851
			c0.391-0.717,0.779-1.435,1.17-2.148C358.372,61.076,360.253,61.753,362.133,62.429z"/>
		<path fill="#E7382F" d="M370.282,96.367c-1.309,4.366-2.616,8.729-3.925,13.096c-1.733-1.352-3.454-2.722-5.205-4.05
			c-1.946-1.479-3.923-2.918-5.843-4.342c0.009-0.018-0.392,0.653-0.79,1.323c-0.076-2.647-0.15-5.294-0.229-7.941
			c0.011-2.36,0.02-4.719,0.025-7.079c0.49,0.091,1.057,0.055,1.458,0.291C360.627,90.542,365.451,93.459,370.282,96.367z"/>
		<path fill="#ECDE27" d="M378.148,30.355c-0.917,4.035-1.834,8.066-2.751,12.104c-4.061-2.037-8.118-4.071-12.178-6.106
			c-1.332-5.451,2.201-9.5,4.042-14.038C370.891,24.992,374.52,27.673,378.148,30.355z"/>
		<path fill="#F3702D" d="M355.313,69.435c5.315,2.968,10.634,5.938,15.955,8.898c0.693,0.39,1.414,0.734,2.121,1.103
			c-0.675,3.354-1.348,6.711-2.021,10.063c-0.418-0.994-0.555-2.451-1.302-2.909c-5.181-3.178-10.488-6.146-15.757-9.186
			c-0.004-0.994-0.009-1.988-0.015-2.981C354.636,72.761,354.974,71.098,355.313,69.435z"/>
		<path fill="#C5303D" d="M354.521,102.395c0.398-0.67,0.799-1.341,0.79-1.323c1.919,1.424,3.896,2.864,5.843,4.342
			c1.751,1.328,3.472,2.699,5.205,4.05c-1.981,4-3.964,8-5.945,12c-1.971-1.021-3.938-2.048-5.911-3.069
			C354.508,113.059,354.515,107.727,354.521,102.395z"/>
		<path fill="#F2C328" d="M363.221,36.35c4.059,2.036,8.116,4.07,12.177,6.106c-1.524,4.47-3.857,8.128-8.988,8.991
			c-2.393-1.42-4.784-2.838-7.176-4.257C360.563,43.578,361.892,39.964,363.221,36.35z"/>
		<path fill="#EE5631" d="M354.311,77.406c5.269,3.037,10.576,6.007,15.757,9.186c0.747,0.458,0.883,1.915,1.302,2.909
			c-0.362,2.289-0.725,4.578-1.085,6.866c-4.831-2.908-9.655-5.825-14.505-8.703c-0.401-0.238-0.968-0.2-1.458-0.291
			c-0.003-0.658-0.006-1.314-0.009-1.975C354.312,82.734,354.312,80.07,354.311,77.406z"/>
		<path fill="#636668" d="M370.598,58.203c10.68-7.959,11.875-18.547,11.833-29.64c-0.027-6.979,4.675-9.999,10.837-6.631
			c-7.021,1.271-8.612,5.911-8.613,12.021c0,6.786-0.107,13.624-4.313,19.604C377.684,57.335,376.288,58.342,370.598,58.203z"/>
		<path fill="#E7382F" d="M354.312,85.399c0.003,0.658,0.006,1.313,0.009,1.975c-0.009,2.36-0.018,4.721-0.025,7.079
			c-0.405,2.652-0.813,5.304-1.22,7.957c-1.661-4.613-3.305-5.155-6.388-2.104c-0.094-6.302-0.188-12.602-0.283-18.899
			C349.04,82.735,351.676,84.067,354.312,85.399z"/>
		<path fill="#F2C328" d="M349.31,44.345c-0.979-6.203,0.714-11.79,3.934-17.023c1.768,2.044,3.531,4.087,5.299,6.131
			c-0.771,3.976-1.541,7.948-2.312,11.922C353.922,45.032,351.615,44.688,349.31,44.345z"/>
		<path fill="#C7DA2E" d="M378.148,30.355c-3.629-2.684-7.258-5.362-10.887-8.044c0.135-0.852,0.27-1.7,0.417-2.629
			c-1.159,0.3-2.175,0.562-3.188,0.82c-1.415-1.063-2.83-2.134-4.244-3.198c1.655-0.988,3.313-1.979,4.968-2.968
			c4.313,2.347,8.621,4.688,12.934,7.03C378.147,24.364,378.147,27.359,378.148,30.355z"/>
		<path fill="#9C314E" d="M354.501,118.393c1.972,1.021,3.939,2.046,5.911,3.068c-1.154,6.432-2.405,12.844-3.421,19.292
			c-0.525,3.341-0.634,6.744-0.93,10.119c-0.628-0.002-1.257-0.005-1.886-0.007c0-5.802,0-11.604,0-17.405
			C354.285,128.439,354.394,123.415,354.501,118.393z"/>
		<path fill="#F5A42D" d="M349.31,44.345c2.308,0.344,4.611,0.688,6.92,1.028c-0.609,4.356-1.223,8.713-1.831,13.071
			c-1.285-0.588-2.524-1.486-3.865-1.674c-1.303-0.187-2.706,0.358-4.066,0.586C347.414,53.021,348.361,48.685,349.31,44.345z"/>
		<path fill="#C7333F" d="M346.688,100.304c3.083-3.051,4.727-2.509,6.388,2.104c-0.263,5.301-0.521,10.604-0.784,15.905
			c-1.552-1.313-3.104-2.619-4.651-3.931C347.32,109.691,347.004,104.998,346.688,100.304z"/>
		<path fill="#F5A42D" d="M359.233,47.191c2.393,1.42,4.784,2.838,7.176,4.258c-1.426,3.66-2.851,7.319-4.275,10.979
			c-1.88-0.678-3.762-1.354-5.642-2.028C357.405,55.997,358.319,51.594,359.233,47.191z"/>
		<path fill="#ECDE27" d="M360.248,17.305c1.414,1.064,2.829,2.134,4.244,3.198c-1.983,4.316-3.968,8.634-5.951,12.948
			c-1.768-2.044-3.532-4.087-5.299-6.131C355.576,23.982,357.912,20.644,360.248,17.305z"/>
		<path fill="#A6CE3A" d="M378.147,21.369c-4.313-2.344-8.621-4.686-12.934-7.03c2.715-1.26,5.429-2.52,8.142-3.777
			c2.681,1.947,5.357,3.897,8.039,5.85C380.313,18.063,379.229,19.715,378.147,21.369z"/>
		<path fill="#7DC242" d="M381.395,16.409c-2.682-1.95-5.358-3.9-8.039-5.85c7.401-3.181,13.772-2.11,18.357,3.061
			C388.281,14.547,384.838,15.479,381.395,16.409z"/>
		<path fill="#A53F5A" d="M347.638,114.385c1.551,1.31,3.102,2.617,4.652,3.929c0.109,7.647,0.266,15.3,0.272,22.948
			c0.001,0.998-0.743,1.994-1.144,2.992C350.16,134.3,348.898,124.342,347.638,114.385z"/>
		<path fill="#EE5631" d="M354.312,85.399c-2.636-1.332-5.271-2.664-7.907-3.995c0.025-2.993,0.05-5.985,0.074-8.979
			c2.604,0.666,5.212,1.333,7.816,1.999c0.004,0.993,0.011,1.987,0.015,2.981C354.312,80.07,354.312,82.734,354.312,85.399z"/>
		<path fill="#F3712E" d="M354.297,74.425c-2.604-0.664-5.212-1.333-7.816-1.997c-0.005-3.328-0.011-6.654-0.019-9.981
			c2.617,1.983,5.232,3.969,7.852,5.955c0.333,0.345,0.667,0.688,1,1.035C354.974,71.098,354.636,72.761,354.297,74.425z"/>
		<path fill="#F48F39" d="M354.313,68.399c-2.616-1.985-5.231-3.971-7.852-5.955c0.001-1.695,0.002-3.391,0.004-5.085
			c1.36-0.229,2.766-0.771,4.065-0.586c1.342,0.188,2.582,1.086,3.866,1.673c0.309,1.368,0.616,2.737,0.924,4.104
			C354.985,64.501,354.648,66.45,354.313,68.399z"/>
		<path fill="#E9CDC1" d="M351.422,144.256c0.398-0.998,1.145-1.994,1.144-2.992c-0.009-7.648-0.163-15.301-0.272-22.948
			c0.262-5.303,0.521-10.604,0.784-15.905c0.405-2.652,0.813-5.304,1.22-7.956c0.075,2.647,0.15,5.294,0.229,7.941
			c-0.006,5.332-0.015,10.665-0.021,15.997c-0.106,5.021-0.217,10.048-0.324,15.068c-0.378,4.724-0.756,9.442-1.133,14.162
			c-0.264,0.076-0.525,0.151-0.792,0.229C351.977,146.653,351.699,145.455,351.422,144.256z"/>
	</g>
</g>
</svg>
