<svg xmlns="http://www.w3.org/2000/svg" width="812" height="200.99" viewBox="6.115 0 812 200.99" xmlns:v="https://vecta.io/nano"><g fill="#fff"><path d="M543.41 90.124l40.438 82.921 38.863-82.814 1.507.186c.38 1.604.931 3.184 1.11 4.807l8.805 78.854c1.183 10.472 3.229 12.487 13.339 13.813.929.122 1.823.509 2.651 1.36h-26.09l-6.352-71.756-1.002-.188-34.285 72.505-1.614.039c-12.867-23.165-23.856-47.289-35.874-71.188l-2.286 25.182-2.767 34.819c-.471 7.568-.225 7.574 7.077 9.063.619.126 1.188.496 1.714 1.527h-26.906c.13-.375.2-.803.29-.807 7.889-.354 9.171-5.63 9.836-12.163l8.498-77.892c.298-2.676.853-5.322 1.284-7.98l1.764-.288zm-484.359-.919l3.389 7.129 28.727 74.247.505 1.409c3.415 8.082 6.658 16.348 17.455 17.325H84.104c-.292-2.745-.094-5.416-.908-7.729-3.04-8.6-6.563-17.03-9.583-25.638-1.052-2.997-2.453-4.23-5.691-4.128-6.986.219-13.993.23-20.979-.006-3.291-.112-4.669 1.218-5.591 4.188-2.064 6.655-4.515 13.191-6.696 19.813-3.002 9.104-2.738 9.635 6.831 13.559H10.865c.862-.744 1.185-1.262 1.505-1.262 9.13.021 12.315-6.317 14.934-13.57l28.44-78.067c.764-2.104 1.847-4.092 3.307-7.27zm11.052 57.408L56.884 109.15l-12.138 37.463h25.357zm334.599 42.775h-26.11c9.49-3.56 9.523-3.604 9.552-12.953l.167-63.483.001-5.22 1.537-.678 62.216 67.13c.168-1.702.408-2.901.385-4.097l-1.021-45.931c-.384-11.664 1.665-11.493-9.848-14.839h24.813c-8.245 3.115-8.219 3.115-8.256 11.536l-.338 64.463c-.014 1.633-.234 3.265-.481 6.497-22.701-21.45-42.537-43.855-63.497-66.708l.016 13.325.995 37.437c.29 10.001.637 10.404 9.869 13.521zM164.91 109.31h23.291c-8.805 1.228-7.142 8.091-7.288 13.563-.342 12.646.143 25.327-.564 37.945-1.405 25.054-25.042 38.354-47.551 26.972-12.218-6.181-14.896-17.604-15.227-29.865-.307-11.481-.04-22.98-.072-34.475-.028-10.468-.058-10.468-10.18-14.134h27.283c-2.443 1.537-5.229 2.396-6.39 4.267-1.179 1.902-.985 4.796-.991 7.256l.199 39.967c.072 3.602.792 7.308 1.896 10.748 3.391 10.6 11.523 15.894 22.874 15.31 9.978-.514 17.838-6.94 19.978-17.139 1.117-5.324 1.472-10.87 1.593-16.329.235-10.655.086-21.318.063-31.979-.017-9.186-.095-9.262-8.914-12.107zm645.905 1.166v20.138l-1.088.108c-.292-.49-.836-.981-.839-1.478-.055-9.5-5.802-13.749-14.173-16.033-18.602-5.073-36.316.746-42.162 15.109-5.999 14.739-5.142 29.395 4.575 42.63 9.191 12.53 25.813 18.127 40.955 14.217 6.509-1.682 8.668-4.202 13.651-14.552-.205 2.681-.243 5.385-.644 8.036-1.525 10.096-2.168 10.563-12.424 11.929-11.049 1.469-22.002 1.191-32.562-2.482-18.519-6.448-29.287-24.788-26.649-44.694 2.77-20.922 17.447-34.569 38.936-35.826 5.457-.319 10.99-.015 16.443.487s10.848 1.611 15.981 2.411z"/><path d="M732.208 189.396h-20.753c-.32-2.502-.24-4.725-.926-6.674-2.469-7.037-5.032-14.057-7.947-20.914-.636-1.493-2.818-3.177-4.388-3.274-5.968-.383-11.979-.319-17.96-.029-1.354.066-3.349 1.438-3.824 2.681-2.373 6.189-4.454 12.505-6.412 18.846-1.896 6.141-1.387 6.883 4.794 9.271h-24.381c1.326-.75 1.771-1.219 2.213-1.22 6.223-.019 9.028-3.927 10.929-9.177l16.752-45.774 7.915-21.474c.554-1.487 1.269-2.913 2.431-5.551 1.26 2.685 2.088 4.208 2.711 5.811l23.904 61.674c.479 1.237.967 2.477 1.496 3.69 2.622 6.016 5.877 11.318 13.446 12.114zm-32.387-35.404l-10.938-31.021-10.05 31.021h20.988zm-399.417-40.091l.021 56.46c.01 3.489.372 6.976.415 10.466.06 4.647 2.124 7.146 6.949 7.123.874-.004 1.749.464 2.531 1.458h-26.334c7.614-1.038 6.968-7.161 7.023-12.067l.053-62.442c0-.298-.243-.598-.585-1.379-6.901.302-14.085.06-21.045 1.188-2.846.462-5.207 3.896-8.453 6.516l2.693-12.85h64.889v13.981c-1.577-8.453-8.226-7.996-14.1-8.396-4.464-.3-8.967-.058-14.057-.058zm-93.3 57.543l.563 2.81c1.535 7.978 4.693 11.095 12.686 12.517 6.983 1.243 13.273-1.3 16.453-6.652 3.241-5.464 2.771-12.703-2.009-18.074-3.729-4.19-8.354-7.575-12.359-11.544-3.993-3.954-8.5-7.701-11.396-12.393-8.498-13.761-.473-29.331 15.623-30.5 5.854-.427 11.813.65 17.685 1.043v14.423l-.862.216c-.348-.627-.938-1.231-1.002-1.888-.608-6.284-4.875-8.691-10.322-9.757-6.848-1.34-13.045 1.068-15.686 5.958-2.722 5.038-1.744 11.595 3.234 16.398 4.894 4.723 10.394 8.808 15.521 13.29 5.459 4.774 10.233 10.084 11.103 17.716 1.643 14.444-6.781 24.641-21.522 26.182-1.156.12-2.337.265-3.485.164-18.055-1.579-17.395-2.101-14.225-19.909z"/></g><path fill="#636667" d="M356.074 187.136c.542-11.111.534-22.284 1.757-33.321 1.74-15.721 7.563-30.324 13.535-44.894 2.563-6.252 3.449-13.209 4.933-19.883 1.441-6.487 2.723-13.018 3.964-19.55.333-1.752.262-3.582 1.469-5.498.271 1.985 1.105 4.085.728 5.938-2.934 14.271-5.605 28.627-9.343 42.694-3.354 12.638-8.904 24.731-11.708 37.458-2.263 10.265-1.88 21.111-2.66 31.7l-.335 5.525-2.34-.169z"/><path fill="#f68a2d" d="M362.133 62.429c.437.654.896 1.896 1.301 1.877 3.401-.167 6.792-.599 10.189-.884 3.757-.313 4.188 2.25 3.525 4.838-.97 3.798-2.48 7.455-3.762 11.175-.707-.365-1.427-.713-2.121-1.103l-15.955-8.898-1-1.035 1.01-5.851 1.17-2.148 5.643 2.029z"/><path fill="#e7382f" d="M370.282 96.367l-3.925 13.096-5.205-4.05-5.843-4.342c.009-.018-.392.653-.79 1.323l-.229-7.941.025-7.079c.49.091 1.057.055 1.458.291l14.509 8.702z"/><path fill="#ecde27" d="M378.148 30.355l-2.751 12.104-12.178-6.106c-1.332-5.451 2.201-9.5 4.042-14.038l10.887 8.04z"/><path fill="#f3702d" d="M355.313 69.435l15.955 8.898 2.121 1.103-2.021 10.063c-.418-.994-.555-2.451-1.302-2.909-5.181-3.178-10.488-6.146-15.757-9.186l-.015-2.981 1.019-4.988z"/><path fill="#c5303d" d="M354.521 102.395l.79-1.323 5.843 4.342 5.205 4.05-5.945 12-5.911-3.069.018-16z"/><path fill="#f2c328" d="M363.221 36.35l12.177 6.106c-1.524 4.47-3.857 8.128-8.988 8.991l-7.176-4.257 3.987-10.84z"/><path fill="#ee5631" d="M354.311 77.406l15.757 9.186c.747.458.883 1.915 1.302 2.909l-1.085 6.866-14.505-8.703c-.401-.238-.968-.2-1.458-.291l-.009-1.975-.002-7.992z"/><path fill="#636668" d="M370.598 58.203c10.68-7.959 11.875-18.547 11.833-29.64-.027-6.979 4.675-9.999 10.837-6.631-7.021 1.271-8.612 5.911-8.613 12.021 0 6.786-.107 13.624-4.313 19.604-2.658 3.778-4.054 4.785-9.744 4.646z"/><path fill="#e7382f" d="M354.312 85.399l.009 1.975-.025 7.079-1.22 7.957c-1.661-4.613-3.305-5.155-6.388-2.104l-.283-18.899 7.907 3.992z"/><path fill="#f2c328" d="M349.31 44.345c-.979-6.203.714-11.79 3.934-17.023l5.299 6.131-2.312 11.922-6.921-1.03z"/><path fill="#c7da2e" d="M378.148 30.355l-10.887-8.044.417-2.629-3.188.82-4.244-3.198 4.968-2.968 12.934 7.03v8.989z"/><path fill="#9c314e" d="M354.501 118.393l5.911 3.068-3.421 19.292c-.525 3.341-.634 6.744-.93 10.119l-1.886-.007V133.46l.326-15.067z"/><path fill="#f5a42d" d="M349.31 44.345l6.92 1.028-1.831 13.071c-1.285-.588-2.524-1.486-3.865-1.674-1.303-.187-2.706.358-4.066.586l2.842-13.011z"/><path fill="#c7333f" d="M346.688 100.304c3.083-3.051 4.727-2.509 6.388 2.104l-.784 15.905-4.651-3.931-.953-14.078z"/><path fill="#f5a42d" d="M359.233 47.191l7.176 4.258-4.275 10.979-5.642-2.028 2.741-13.209z"/><path fill="#ecde27" d="M360.248 17.305l4.244 3.198-5.951 12.948-5.299-6.131 7.006-10.015z"/><path fill="#a6ce3a" d="M378.147 21.369l-12.934-7.03 8.142-3.777 8.039 5.85-3.247 4.957z"/><path fill="#7dc242" d="M381.395 16.409l-8.039-5.85c7.401-3.181 13.772-2.11 18.357 3.061l-10.318 2.789z"/><path fill="#a53f5a" d="M347.638 114.385l4.652 3.929.272 22.948c.001.998-.743 1.994-1.144 2.992l-3.78-29.869z"/><path fill="#ee5631" d="M354.312 85.399l-7.907-3.995.074-8.979 7.816 1.999.015 2.981.002 7.994z"/><path fill="#f3712e" d="M354.297 74.425l-7.816-1.997-.019-9.981 7.852 5.955 1 1.035-1.017 4.988z"/><path fill="#f48f39" d="M354.313 68.399l-7.852-5.955.004-5.085c1.36-.229 2.766-.771 4.065-.586 1.342.188 2.582 1.086 3.866 1.673l.924 4.104-1.007 5.849z"/><path fill="#e9cdc1" d="M351.422 144.256c.398-.998 1.145-1.994 1.144-2.992l-.272-22.948.784-15.905 1.22-7.956.229 7.941-.021 15.997-.324 15.068-1.133 14.162-.792.229-.835-3.596z"/></svg>